{
	"nodes":[{
		"rotation":[0.7339960932731628,
		-3.3581278802483718e-18,
		3.3581278802483718e-18,
		-0.6791536808013916],
		"name":"Default",
		"translation":[-7.643345355987549,
		5.248419284820557,
		0.34814977645874026],
		"scale":[1.0,
		1.0,
		1.0],
		"mesh":0
	}],
	"asset":{
		"version":"2.0",
		"generator":"Created using the official Cinema 4D glTF Exporter 1.000x284978"
	},
	"scenes":[{
		"nodes":[0]
	}],
	"meshes":[{
		"name":"Default",
		"primitives":[{
			"attributes":{
				"POSITION":1,
				"NORMAL":2
			},
			"indices":0,
			"material":0
		}]
	}],
	"accessors":[{
		"bufferView":0,
		"count":23166,
		"type":"SCALAR",
		"componentType":5123,
		"byteOffset":0,
		"min":[0],
		"max":[4156]
	},
	{
		"bufferView":1,
		"count":4157,
		"type":"VEC3",
		"componentType":5126,
		"byteOffset":0,
		"min":[-4.633739471435547,
		-6.825496673583984,
		-2.495453357696533],
		"max":[4.633739471435547,
		2.1857173442840578,
		1.1593201160430909]
	},
	{
		"bufferView":1,
		"count":4157,
		"type":"VEC3",
		"componentType":5126,
		"byteOffset":12,
		"min":[-0.9991690516471863,
		-0.999421238899231,
		-0.9994757771492004],
		"max":[0.9991690516471863,
		0.9999902844429016,
		0.999984085559845]
	}],
	"bufferViews":[{
		"target":34963,
		"buffer":0,
		"byteOffset":0,
		"byteLength":46332
	},
	{
		"target":34962,
		"buffer":0,
		"byteOffset":46332,
		"byteLength":99768,
		"byteStride":24
	}],
	"buffers":[{
		"uri":"data:application/octet-stream;base64,",
		"byteLength":146100
	}],
	"materials":[{
		"pbrMetallicRoughness":{
			"baseColorFactor":[1.0,
			1.0,
			1.0,
			1.0],
			"metallicFactor":0.0,
			"roughnessFactor":0.5
		},
		"emissiveFactor":[0.0,
		0.0,
		0.0],
		"alphaMode":"OPAQUE",
		"doubleSided":false,
		"name":"Default"
	}]
}